<svg id="Слой_1" data-name="Слой 1" xmlns="http://www.w3.org/2000/svg" viewBox="0 0 1362.33 633.98"><defs><style>.cls-1{fill:#ababaa;}.cls-2{fill:#e9d800;}.cls-3{fill:#cbbd00;}.cls-4{fill:#ebe100;}.cls-5{fill:#375bdd;}.cls-6{fill:#dbeef3;}.cls-7{fill:#1200ff;}.cls-8{fill:#c6c6c6;}.cls-9{fill:#fff;}.cls-10{fill:#8f9293;}.cls-11{fill:#f39700;}.cls-12{fill:#cd4616;}.cls-13{fill:#069639;}.cls-14{fill:#1d1d1b;}.cls-15{fill:#0b8e35;}.cls-16{fill:#888b8e;}</style></defs><title>back</title><rect class="cls-1" y="574.05" width="1362.33" height="59.93"/><polygon class="cls-2" points="1206.39 423.45 1196.84 423.45 1187.3 423.45 1187.3 414.02 1187.3 404.58 1178.04 404.58 1168.5 404.58 1159.24 404.58 1149.69 404.58 1140.15 404.58 1140.15 414.02 1140.15 423.45 1130.89 423.45 1130.89 432.88 1130.89 442.32 1130.89 451.75 1130.89 461.19 1130.89 470.62 1130.89 480.06 1130.89 489.49 1130.89 498.92 1130.89 508.35 1130.89 517.79 1130.89 527.23 1130.89 536.66 1130.89 546.09 1130.89 555.53 1130.89 564.96 1130.89 574.39 1140.15 574.39 1149.69 574.39 1159.24 574.39 1168.5 574.39 1178.04 574.39 1187.3 574.39 1196.84 574.39 1206.39 574.39 1215.65 574.39 1215.65 564.96 1215.65 555.53 1215.65 546.09 1215.65 536.66 1215.65 527.23 1215.65 517.79 1215.65 508.35 1215.65 498.92 1215.65 489.49 1215.65 480.06 1215.65 470.62 1215.65 461.19 1215.65 451.75 1215.65 442.32 1215.65 432.88 1215.65 423.45 1206.39 423.45"/><rect class="cls-2" x="1206.39" y="546.09" width="9.26" height="9.44"/><rect class="cls-2" x="1206.39" y="517.79" width="9.26" height="9.43"/><rect class="cls-2" x="1206.39" y="489.49" width="9.26" height="9.43"/><rect class="cls-2" x="1206.39" y="461.19" width="9.26" height="9.43"/><rect class="cls-2" x="1206.39" y="432.89" width="9.26" height="9.44"/><rect class="cls-2" x="1206.39" y="423.45" width="9.26" height="9.44"/><rect class="cls-2" x="1196.84" y="546.09" width="9.55" height="9.44"/><rect class="cls-2" x="1196.84" y="517.79" width="9.55" height="9.43"/><rect class="cls-2" x="1196.84" y="489.49" width="9.55" height="9.43"/><rect class="cls-2" x="1196.84" y="461.19" width="9.55" height="9.43"/><rect class="cls-2" x="1196.84" y="432.89" width="9.55" height="9.44"/><rect class="cls-2" x="1196.84" y="423.45" width="9.55" height="9.44"/><rect class="cls-2" x="1187.3" y="546.09" width="9.55" height="9.44"/><rect class="cls-2" x="1187.3" y="517.79" width="9.55" height="9.43"/><rect class="cls-2" x="1187.3" y="489.49" width="9.55" height="9.43"/><rect class="cls-2" x="1187.3" y="461.19" width="9.55" height="9.43"/><rect class="cls-2" x="1187.3" y="432.89" width="9.55" height="9.44"/><rect class="cls-2" x="1187.3" y="423.45" width="9.55" height="9.44"/><rect class="cls-2" x="1178.04" y="546.09" width="9.26" height="9.44"/><rect class="cls-2" x="1178.04" y="517.79" width="9.26" height="9.43"/><rect class="cls-2" x="1178.04" y="489.49" width="9.26" height="9.43"/><rect class="cls-2" x="1178.04" y="461.19" width="9.26" height="9.43"/><rect class="cls-2" x="1178.04" y="432.89" width="9.26" height="9.44"/><rect class="cls-2" x="1178.04" y="423.45" width="9.26" height="9.44"/><rect class="cls-2" x="1178.04" y="414.02" width="9.26" height="9.43"/><rect class="cls-2" x="1178.04" y="404.59" width="9.26" height="9.43"/><rect class="cls-2" x="1168.5" y="546.09" width="9.55" height="9.44"/><rect class="cls-2" x="1168.5" y="517.79" width="9.55" height="9.43"/><rect class="cls-2" x="1168.5" y="489.49" width="9.55" height="9.43"/><rect class="cls-2" x="1168.5" y="461.19" width="9.55" height="9.43"/><rect class="cls-2" x="1168.5" y="432.89" width="9.55" height="9.44"/><rect class="cls-2" x="1168.5" y="423.45" width="9.55" height="9.44"/><rect class="cls-2" x="1168.5" y="404.59" width="9.55" height="9.43"/><rect class="cls-2" x="1159.24" y="546.09" width="9.26" height="9.44"/><rect class="cls-2" x="1159.24" y="517.79" width="9.26" height="9.43"/><rect class="cls-2" x="1159.24" y="489.49" width="9.26" height="9.43"/><rect class="cls-2" x="1159.24" y="461.19" width="9.26" height="9.43"/><rect class="cls-2" x="1159.24" y="432.89" width="9.26" height="9.44"/><rect class="cls-2" x="1159.24" y="423.45" width="9.26" height="9.44"/><rect class="cls-2" x="1159.24" y="414.02" width="9.26" height="9.43"/><rect class="cls-2" x="1159.24" y="404.59" width="9.26" height="9.43"/><rect class="cls-2" x="1149.69" y="546.09" width="9.55" height="9.44"/><rect class="cls-2" x="1149.69" y="517.79" width="9.55" height="9.43"/><rect class="cls-2" x="1149.69" y="489.49" width="9.55" height="9.43"/><rect class="cls-2" x="1149.69" y="461.19" width="9.55" height="9.43"/><rect class="cls-2" x="1149.69" y="432.89" width="9.55" height="9.44"/><rect class="cls-2" x="1149.69" y="423.45" width="9.55" height="9.44"/><rect class="cls-2" x="1149.69" y="404.59" width="9.55" height="9.43"/><rect class="cls-2" x="1140.15" y="546.09" width="9.55" height="9.44"/><rect class="cls-2" x="1140.15" y="517.79" width="9.55" height="9.43"/><rect class="cls-2" x="1140.15" y="489.49" width="9.55" height="9.43"/><rect class="cls-2" x="1140.15" y="461.19" width="9.55" height="9.43"/><rect class="cls-3" x="1196.84" y="536.66" width="9.55" height="9.43"/><rect class="cls-3" x="1196.84" y="508.35" width="9.55" height="9.44"/><rect class="cls-3" x="1196.84" y="480.06" width="9.55" height="9.43"/><rect class="cls-3" x="1196.84" y="451.75" width="9.55" height="9.43"/><rect class="cls-3" x="1178.04" y="536.66" width="9.26" height="9.43"/><rect class="cls-3" x="1178.04" y="508.35" width="9.26" height="9.44"/><rect class="cls-3" x="1178.04" y="480.06" width="9.26" height="9.43"/><rect class="cls-3" x="1178.04" y="451.75" width="9.26" height="9.43"/><rect class="cls-3" x="1168.5" y="414.02" width="9.55" height="9.43"/><rect class="cls-3" x="1159.24" y="536.66" width="9.26" height="9.43"/><rect class="cls-3" x="1159.24" y="508.35" width="9.26" height="9.44"/><rect class="cls-3" x="1159.24" y="480.06" width="9.26" height="9.43"/><rect class="cls-3" x="1159.24" y="451.75" width="9.26" height="9.43"/><rect class="cls-3" x="1149.69" y="414.02" width="9.55" height="9.43"/><rect class="cls-3" x="1140.15" y="536.66" width="9.55" height="9.43"/><rect class="cls-3" x="1140.15" y="508.35" width="9.55" height="9.44"/><rect class="cls-3" x="1140.15" y="480.06" width="9.55" height="9.43"/><rect class="cls-3" x="1140.15" y="451.75" width="9.55" height="9.43"/><rect class="cls-2" x="1140.15" y="432.89" width="9.55" height="9.44"/><rect class="cls-2" x="1140.15" y="423.45" width="9.55" height="9.44"/><rect class="cls-2" x="1140.15" y="414.02" width="9.55" height="9.43"/><rect class="cls-2" x="1140.15" y="404.59" width="9.55" height="9.43"/><rect class="cls-2" x="1130.89" y="546.09" width="9.26" height="9.44"/><rect class="cls-2" x="1130.89" y="517.79" width="9.26" height="9.43"/><rect class="cls-2" x="1130.89" y="489.49" width="9.26" height="9.43"/><rect class="cls-2" x="1130.89" y="461.19" width="9.26" height="9.43"/><polygon class="cls-4" points="1206.39 442.32 1196.84 442.32 1187.3 442.32 1178.04 442.32 1168.5 442.32 1159.24 442.32 1149.69 442.32 1140.15 442.32 1130.89 442.32 1130.89 451.75 1130.89 461.19 1140.15 461.19 1140.15 451.75 1149.69 451.75 1149.69 461.19 1159.24 461.19 1159.24 451.75 1168.5 451.75 1168.5 461.19 1178.04 461.19 1178.04 451.75 1187.3 451.75 1187.3 461.19 1196.84 461.19 1196.84 451.75 1206.39 451.75 1206.39 461.19 1215.65 461.19 1215.65 451.75 1215.65 442.32 1206.39 442.32"/><polygon class="cls-4" points="1196.84 555.53 1187.3 555.53 1178.04 555.53 1168.5 555.53 1159.24 555.53 1149.69 555.53 1140.15 555.53 1130.89 555.53 1130.89 564.96 1130.89 574.39 1140.15 574.39 1149.69 574.39 1159.24 574.39 1168.5 574.39 1178.04 574.39 1187.3 574.39 1196.84 574.39 1206.39 574.39 1215.65 574.39 1215.65 564.96 1215.65 555.53 1206.39 555.53 1196.84 555.53"/><polygon class="cls-4" points="1196.84 527.23 1187.3 527.23 1178.04 527.23 1168.5 527.23 1159.24 527.23 1149.69 527.23 1140.15 527.23 1130.89 527.23 1130.89 536.66 1130.89 546.09 1140.15 546.09 1140.15 536.66 1149.69 536.66 1149.69 546.09 1159.24 546.09 1159.24 536.66 1168.5 536.66 1168.5 546.09 1178.04 546.09 1178.04 536.66 1187.3 536.66 1187.3 546.09 1196.84 546.09 1196.84 536.66 1206.39 536.66 1206.39 546.09 1215.65 546.09 1215.65 536.66 1215.65 527.23 1206.39 527.23 1196.84 527.23"/><polygon class="cls-4" points="1196.84 498.92 1187.3 498.92 1178.04 498.92 1168.5 498.92 1159.24 498.92 1149.69 498.92 1140.15 498.92 1130.89 498.92 1130.89 508.35 1130.89 517.79 1140.15 517.79 1140.15 508.35 1149.69 508.35 1149.69 517.79 1159.24 517.79 1159.24 508.35 1168.5 508.35 1168.5 517.79 1178.04 517.79 1178.04 508.35 1187.3 508.35 1187.3 517.79 1196.84 517.79 1196.84 508.35 1206.39 508.35 1206.39 517.79 1215.65 517.79 1215.65 508.35 1215.65 498.92 1206.39 498.92 1196.84 498.92"/><polygon class="cls-4" points="1196.84 470.62 1187.3 470.62 1178.04 470.62 1168.5 470.62 1159.24 470.62 1149.69 470.62 1140.15 470.62 1130.89 470.62 1130.89 480.06 1130.89 489.49 1140.15 489.49 1140.15 480.06 1149.69 480.06 1149.69 489.49 1159.24 489.49 1159.24 480.06 1168.5 480.06 1168.5 489.49 1178.04 489.49 1178.04 480.06 1187.3 480.06 1187.3 489.49 1196.84 489.49 1196.84 480.06 1206.39 480.06 1206.39 489.49 1215.65 489.49 1215.65 480.06 1215.65 470.62 1206.39 470.62 1196.84 470.62"/><rect class="cls-2" x="1130.89" y="432.89" width="9.26" height="9.44"/><rect class="cls-2" x="1130.89" y="423.45" width="9.26" height="9.44"/><polygon class="cls-5" points="1111.8 432.88 1111.8 423.45 1102.54 423.45 1093 423.45 1083.74 423.45 1074.19 423.45 1064.65 423.45 1055.39 423.45 1055.39 432.88 1045.85 432.88 1036.59 432.88 1027.05 432.88 1027.05 423.45 1017.5 423.45 1017.5 432.88 1008.24 432.88 1008.24 442.32 1008.24 451.76 1008.24 461.19 1008.24 470.62 1008.24 480.06 1008.24 489.49 1008.24 498.92 1008.24 508.36 1008.24 517.79 1008.24 527.23 1008.24 536.66 1008.24 546.09 1008.24 555.53 1008.24 564.96 1008.24 574.39 1017.5 574.39 1027.05 574.39 1036.59 574.39 1045.85 574.39 1055.39 574.39 1064.65 574.39 1074.19 574.39 1083.74 574.39 1093 574.39 1102.54 574.39 1111.8 574.39 1121.35 574.39 1121.35 564.96 1121.35 555.53 1121.35 546.09 1121.35 536.66 1121.35 527.23 1121.35 517.79 1121.35 508.36 1121.35 498.92 1121.35 489.49 1121.35 480.06 1121.35 470.62 1121.35 461.19 1121.35 451.76 1121.35 442.32 1121.35 432.88 1111.8 432.88"/><rect class="cls-6" x="1102.54" y="546.09" width="9.26" height="9.44"/><rect class="cls-6" x="1102.54" y="527.23" width="9.26" height="9.43"/><rect class="cls-6" x="1102.54" y="470.62" width="9.26" height="9.44"/><rect class="cls-6" x="1102.54" y="451.76" width="9.26" height="9.43"/><polygon class="cls-6" points="1093 508.36 1093 517.79 1102.54 517.79 1111.8 517.79 1111.8 508.36 1102.54 508.36 1093 508.36"/><polygon class="cls-6" points="1093 489.49 1093 498.92 1102.54 498.92 1111.8 498.92 1111.8 489.49 1102.54 489.49 1093 489.49"/><polygon class="cls-6" points="1093 480.06 1093 470.62 1083.74 470.62 1074.19 470.62 1074.19 480.06 1083.74 480.06 1093 480.06"/><polygon class="cls-6" points="1093 461.19 1093 451.76 1083.74 451.76 1074.19 451.76 1074.19 461.19 1083.74 461.19 1093 461.19"/><polygon class="cls-6" points="1074.19 546.09 1074.19 555.53 1083.74 555.53 1093 555.53 1093 546.09 1083.74 546.09 1074.19 546.09"/><polygon class="cls-6" points="1074.19 527.23 1074.19 536.66 1083.74 536.66 1093 536.66 1093 527.23 1083.74 527.23 1074.19 527.23"/><polygon class="cls-6" points="1083.74 517.79 1083.74 508.36 1074.19 508.36 1064.65 508.36 1064.65 517.79 1074.19 517.79 1083.74 517.79"/><polygon class="cls-6" points="1064.65 498.92 1074.19 498.92 1083.74 498.92 1083.74 489.49 1074.19 489.49 1064.65 489.49 1064.65 498.92"/><polygon class="cls-6" points="1064.65 480.06 1064.65 470.62 1055.39 470.62 1045.85 470.62 1045.85 480.06 1055.39 480.06 1064.65 480.06"/><polygon class="cls-6" points="1064.65 461.19 1064.65 451.76 1055.39 451.76 1045.85 451.76 1045.85 461.19 1055.39 461.19 1064.65 461.19"/><polygon class="cls-6" points="1045.85 546.09 1045.85 555.53 1055.39 555.53 1064.65 555.53 1064.65 546.09 1055.39 546.09 1045.85 546.09"/><polygon class="cls-6" points="1045.85 527.23 1045.85 536.66 1055.39 536.66 1064.65 536.66 1064.65 527.23 1055.39 527.23 1045.85 527.23"/><polygon class="cls-6" points="1055.39 517.79 1055.39 508.36 1045.85 508.36 1036.59 508.36 1036.59 517.79 1045.85 517.79 1055.39 517.79"/><polygon class="cls-6" points="1036.59 498.92 1045.85 498.92 1055.39 498.92 1055.39 489.49 1045.85 489.49 1036.59 489.49 1036.59 498.92"/><polygon class="cls-6" points="1036.59 480.06 1036.59 470.62 1027.05 470.62 1017.5 470.62 1017.5 480.06 1027.05 480.06 1036.59 480.06"/><polygon class="cls-6" points="1036.59 461.19 1036.59 451.76 1027.05 451.76 1017.5 451.76 1017.5 461.19 1027.05 461.19 1036.59 461.19"/><polygon class="cls-6" points="1017.5 546.09 1017.5 555.53 1027.05 555.53 1036.59 555.53 1036.59 546.09 1027.05 546.09 1017.5 546.09"/><polygon class="cls-6" points="1017.5 527.23 1017.5 536.66 1027.05 536.66 1036.59 536.66 1036.59 527.23 1027.05 527.23 1017.5 527.23"/><rect class="cls-6" x="1017.5" y="508.36" width="9.55" height="9.44"/><rect class="cls-6" x="1017.5" y="489.49" width="9.55" height="9.43"/><polygon class="cls-7" points="1111.8 432.88 1111.8 423.45 1102.54 423.45 1093 423.45 1083.74 423.45 1074.19 423.45 1064.65 423.45 1055.39 423.45 1055.39 432.88 1045.85 432.88 1036.59 432.88 1027.05 432.88 1027.05 423.45 1017.5 423.45 1017.5 432.88 1008.24 432.88 1008.24 442.32 1017.5 442.32 1027.05 442.32 1036.59 442.32 1045.85 442.32 1055.39 442.32 1064.65 442.32 1074.19 442.32 1083.74 442.32 1093 442.32 1102.54 442.32 1111.8 442.32 1121.35 442.32 1121.35 432.88 1111.8 432.88"/><polygon class="cls-8" points="989.44 385.72 989.44 376.28 979.89 376.28 979.89 366.85 979.89 357.41 979.89 347.98 970.35 347.98 970.35 338.55 970.35 329.12 970.35 319.68 961.09 319.68 961.09 310.25 961.09 300.81 951.55 300.81 951.55 310.25 951.55 319.68 942 319.68 942 329.12 942 338.55 942 347.98 932.74 347.98 932.74 357.41 932.74 366.85 932.74 376.28 923.2 376.28 923.2 385.72 913.94 385.72 913.94 395.15 913.94 404.59 913.94 414.02 913.94 423.45 913.94 432.88 913.94 442.32 913.94 451.75 913.94 461.19 913.94 470.62 913.94 480.06 913.94 489.49 913.94 498.92 913.94 508.36 913.94 517.79 913.94 527.23 913.94 536.66 913.94 546.09 913.94 555.53 913.94 564.96 913.94 574.39 923.2 574.39 932.74 574.39 942 574.39 951.55 574.39 961.09 574.39 970.35 574.39 979.89 574.39 989.44 574.39 998.7 574.39 998.7 564.96 998.7 555.53 998.7 546.09 998.7 536.66 998.7 527.23 998.7 517.79 998.7 508.36 998.7 498.92 998.7 489.49 998.7 480.06 998.7 470.62 998.7 461.19 998.7 451.75 998.7 442.32 998.7 432.88 998.7 423.45 998.7 414.02 998.7 404.59 998.7 395.15 998.7 385.72 989.44 385.72"/><rect class="cls-9" x="979.89" y="546.09" width="9.55" height="9.44"/><rect class="cls-9" x="979.89" y="527.23" width="9.55" height="9.43"/><rect class="cls-9" x="979.89" y="508.36" width="9.55" height="9.44"/><rect class="cls-9" x="979.89" y="489.49" width="9.55" height="9.43"/><rect class="cls-9" x="979.89" y="470.62" width="9.55" height="9.44"/><rect class="cls-9" x="979.89" y="451.75" width="9.55" height="9.43"/><rect class="cls-9" x="979.89" y="432.89" width="9.55" height="9.44"/><rect class="cls-9" x="979.89" y="414.02" width="9.55" height="9.43"/><rect class="cls-9" x="979.89" y="395.15" width="9.55" height="9.44"/><rect class="cls-9" x="961.09" y="546.09" width="9.26" height="9.44"/><rect class="cls-9" x="961.09" y="527.23" width="9.26" height="9.43"/><rect class="cls-9" x="961.09" y="508.36" width="9.26" height="9.44"/><rect class="cls-9" x="961.09" y="489.49" width="9.26" height="9.43"/><rect class="cls-9" x="961.09" y="470.62" width="9.26" height="9.44"/><rect class="cls-9" x="961.09" y="451.75" width="9.26" height="9.43"/><rect class="cls-9" x="961.09" y="432.89" width="9.26" height="9.44"/><rect class="cls-9" x="961.09" y="414.02" width="9.26" height="9.43"/><rect class="cls-9" x="961.09" y="395.15" width="9.26" height="9.44"/><rect class="cls-9" x="961.09" y="357.41" width="9.26" height="9.44"/><rect class="cls-9" x="951.55" y="329.12" width="9.55" height="9.43"/><rect class="cls-9" x="942" y="546.09" width="9.55" height="9.44"/><rect class="cls-9" x="942" y="527.23" width="9.55" height="9.43"/><rect class="cls-9" x="942" y="508.36" width="9.55" height="9.44"/><rect class="cls-9" x="942" y="489.49" width="9.55" height="9.43"/><rect class="cls-9" x="942" y="470.62" width="9.55" height="9.44"/><rect class="cls-9" x="942" y="451.75" width="9.55" height="9.43"/><rect class="cls-9" x="942" y="432.89" width="9.55" height="9.44"/><rect class="cls-9" x="942" y="414.02" width="9.55" height="9.43"/><rect class="cls-9" x="942" y="395.15" width="9.55" height="9.44"/><rect class="cls-9" x="942" y="357.41" width="9.55" height="9.44"/><rect class="cls-9" x="923.2" y="546.09" width="9.55" height="9.44"/><rect class="cls-9" x="923.2" y="527.23" width="9.55" height="9.43"/><rect class="cls-9" x="923.2" y="508.36" width="9.55" height="9.44"/><rect class="cls-9" x="923.2" y="489.49" width="9.55" height="9.43"/><rect class="cls-9" x="923.2" y="470.62" width="9.55" height="9.44"/><rect class="cls-9" x="923.2" y="451.75" width="9.55" height="9.43"/><rect class="cls-9" x="923.2" y="432.89" width="9.55" height="9.44"/><rect class="cls-9" x="923.2" y="414.02" width="9.55" height="9.43"/><rect class="cls-9" x="923.2" y="395.15" width="9.55" height="9.44"/><polygon class="cls-10" points="989.44 564.96 979.89 564.96 970.35 564.96 961.09 564.96 951.55 564.96 942 564.96 932.74 564.96 923.2 564.96 913.94 564.96 913.94 574.39 923.2 574.39 932.74 574.39 942 574.39 951.55 574.39 961.09 574.39 970.35 574.39 979.89 574.39 989.44 574.39 998.7 574.39 998.7 564.96 989.44 564.96"/><polygon class="cls-10" points="961.09 347.98 970.35 347.98 970.35 338.55 961.09 338.55 951.55 338.55 942 338.55 942 347.98 951.55 347.98 961.09 347.98"/><polygon class="cls-10" points="961.09 310.25 961.09 300.81 951.55 300.81 951.55 310.25 951.55 319.68 961.09 319.68 961.09 310.25"/><polygon class="cls-10" points="942 385.72 951.55 385.72 961.09 385.72 970.35 385.72 979.89 385.72 989.44 385.72 989.44 376.28 979.89 376.28 970.35 376.28 961.09 376.28 951.55 376.28 942 376.28 932.74 376.28 923.2 376.28 923.2 385.72 932.74 385.72 942 385.72"/><polygon class="cls-11" points="1320.07 385.72 1320.07 376.28 1310.53 376.28 1310.53 385.72 1300.98 385.72 1300.98 376.28 1291.72 376.28 1291.72 385.72 1282.18 385.72 1282.18 376.28 1272.63 376.28 1272.63 385.72 1263.38 385.72 1263.38 376.28 1253.83 376.28 1253.83 385.72 1244.57 385.72 1244.57 376.28 1235.03 376.28 1235.03 385.72 1225.48 385.72 1225.48 395.15 1225.48 404.59 1225.48 414.02 1225.48 423.45 1225.48 432.88 1225.48 442.32 1225.48 451.75 1225.48 461.19 1225.48 470.62 1225.48 480.06 1225.48 489.49 1225.48 498.93 1225.48 508.36 1225.48 517.79 1225.48 527.23 1225.48 536.66 1225.48 546.09 1225.48 555.53 1225.48 564.96 1225.48 574.39 1235.03 574.39 1244.57 574.39 1253.83 574.39 1263.38 574.39 1272.63 574.39 1282.18 574.39 1291.72 574.39 1300.98 574.39 1310.53 574.39 1320.07 574.39 1329.33 574.39 1329.33 564.96 1329.33 555.53 1329.33 546.09 1329.33 536.66 1329.33 527.23 1329.33 517.79 1329.33 508.36 1329.33 498.93 1329.33 489.49 1329.33 480.06 1329.33 470.62 1329.33 461.19 1329.33 451.75 1329.33 442.32 1329.33 432.88 1329.33 423.45 1329.33 414.02 1329.33 404.59 1329.33 395.15 1329.33 385.72 1320.07 385.72"/><polygon class="cls-12" points="1320.07 385.72 1320.07 376.28 1310.53 376.28 1310.53 385.72 1300.98 385.72 1300.98 376.28 1291.72 376.28 1291.72 385.72 1282.18 385.72 1282.18 376.28 1272.63 376.28 1272.63 385.72 1263.38 385.72 1263.38 376.28 1253.83 376.28 1253.83 385.72 1244.57 385.72 1244.57 376.28 1235.03 376.28 1235.03 385.72 1225.48 385.72 1225.48 395.15 1235.03 395.15 1244.57 395.15 1253.83 395.15 1263.38 395.15 1272.63 395.15 1282.18 395.15 1291.72 395.15 1300.98 395.15 1310.53 395.15 1320.07 395.15 1329.33 395.15 1329.33 385.72 1320.07 385.72"/><polygon class="cls-12" points="1310.53 555.53 1300.98 555.53 1291.72 555.53 1282.18 555.53 1272.63 555.53 1263.38 555.53 1253.83 555.53 1244.57 555.53 1235.03 555.53 1225.48 555.53 1225.48 564.96 1225.48 574.39 1235.03 574.39 1244.57 574.39 1253.83 574.39 1263.38 574.39 1272.63 574.39 1282.18 574.39 1291.72 574.39 1300.98 574.39 1310.53 574.39 1320.07 574.39 1329.33 574.39 1329.33 564.96 1329.33 555.53 1320.07 555.53 1310.53 555.53"/><polygon class="cls-12" points="1310.53 536.66 1310.53 546.09 1320.07 546.09 1320.07 536.66 1320.07 527.23 1310.53 527.23 1310.53 536.66"/><polygon class="cls-12" points="1310.53 508.36 1310.53 517.79 1320.07 517.79 1320.07 508.36 1320.07 498.93 1310.53 498.93 1310.53 508.36"/><polygon class="cls-12" points="1310.53 480.06 1310.53 489.49 1320.07 489.49 1320.07 480.06 1320.07 470.62 1310.53 470.62 1310.53 480.06"/><polygon class="cls-12" points="1310.53 451.75 1310.53 461.19 1320.07 461.19 1320.07 451.75 1320.07 442.32 1310.53 442.32 1310.53 451.75"/><polygon class="cls-12" points="1320.07 423.45 1320.07 414.02 1310.53 414.02 1310.53 423.45 1310.53 432.88 1320.07 432.88 1320.07 423.45"/><polygon class="cls-12" points="1291.72 536.66 1291.72 546.09 1300.98 546.09 1300.98 536.66 1300.98 527.23 1291.72 527.23 1291.72 536.66"/><polygon class="cls-12" points="1291.72 508.36 1291.72 517.79 1300.98 517.79 1300.98 508.36 1300.98 498.93 1291.72 498.93 1291.72 508.36"/><polygon class="cls-12" points="1291.72 480.06 1291.72 489.49 1300.98 489.49 1300.98 480.06 1300.98 470.62 1291.72 470.62 1291.72 480.06"/><polygon class="cls-12" points="1291.72 451.75 1291.72 461.19 1300.98 461.19 1300.98 451.75 1300.98 442.32 1291.72 442.32 1291.72 451.75"/><polygon class="cls-12" points="1300.98 423.45 1300.98 414.02 1291.72 414.02 1291.72 423.45 1291.72 432.88 1300.98 432.88 1300.98 423.45"/><polygon class="cls-12" points="1272.63 536.66 1272.63 546.09 1282.18 546.09 1282.18 536.66 1282.18 527.23 1272.63 527.23 1272.63 536.66"/><polygon class="cls-12" points="1272.63 508.36 1272.63 517.79 1282.18 517.79 1282.18 508.36 1282.18 498.93 1272.63 498.93 1272.63 508.36"/><polygon class="cls-12" points="1272.63 480.06 1272.63 489.49 1282.18 489.49 1282.18 480.06 1282.18 470.62 1272.63 470.62 1272.63 480.06"/><polygon class="cls-12" points="1272.63 451.75 1272.63 461.19 1282.18 461.19 1282.18 451.75 1282.18 442.32 1272.63 442.32 1272.63 451.75"/><polygon class="cls-12" points="1282.18 423.45 1282.18 414.02 1272.63 414.02 1272.63 423.45 1272.63 432.88 1282.18 432.88 1282.18 423.45"/><polygon class="cls-12" points="1253.83 536.66 1253.83 546.09 1263.38 546.09 1263.38 536.66 1263.38 527.23 1253.83 527.23 1253.83 536.66"/><polygon class="cls-12" points="1253.83 508.36 1253.83 517.79 1263.38 517.79 1263.38 508.36 1263.38 498.93 1253.83 498.93 1253.83 508.36"/><polygon class="cls-12" points="1253.83 480.06 1253.83 489.49 1263.38 489.49 1263.38 480.06 1263.38 470.62 1253.83 470.62 1253.83 480.06"/><polygon class="cls-12" points="1253.83 451.75 1253.83 461.19 1263.38 461.19 1263.38 451.75 1263.38 442.32 1253.83 442.32 1253.83 451.75"/><polygon class="cls-12" points="1263.38 423.45 1263.38 414.02 1253.83 414.02 1253.83 423.45 1253.83 432.88 1263.38 432.88 1263.38 423.45"/><polygon class="cls-12" points="1235.03 536.66 1235.03 546.09 1244.57 546.09 1244.57 536.66 1244.57 527.23 1235.03 527.23 1235.03 536.66"/><polygon class="cls-12" points="1235.03 508.36 1235.03 517.79 1244.57 517.79 1244.57 508.36 1244.57 498.93 1235.03 498.93 1235.03 508.36"/><polygon class="cls-12" points="1235.03 480.06 1235.03 489.49 1244.57 489.49 1244.57 480.06 1244.57 470.62 1235.03 470.62 1235.03 480.06"/><polygon class="cls-12" points="1235.03 451.75 1235.03 461.19 1244.57 461.19 1244.57 451.75 1244.57 442.32 1235.03 442.32 1235.03 451.75"/><polygon class="cls-12" points="1244.57 423.45 1244.57 414.02 1235.03 414.02 1235.03 423.45 1235.03 432.88 1244.57 432.88 1244.57 423.45"/><polygon class="cls-2" points="265.65 423.45 256.11 423.45 246.56 423.45 246.56 414.02 246.56 404.58 237.3 404.58 227.76 404.58 218.5 404.58 208.96 404.58 199.41 404.58 199.41 414.02 199.41 423.45 190.15 423.45 190.15 432.88 190.15 442.32 190.15 451.75 190.15 461.19 190.15 470.62 190.15 480.06 190.15 489.49 190.15 498.92 190.15 508.35 190.15 517.79 190.15 527.23 190.15 536.66 190.15 546.09 190.15 555.53 190.15 564.96 190.15 574.39 199.41 574.39 208.96 574.39 218.5 574.39 227.76 574.39 237.3 574.39 246.56 574.39 256.11 574.39 265.65 574.39 274.91 574.39 274.91 564.96 274.91 555.53 274.91 546.09 274.91 536.66 274.91 527.23 274.91 517.79 274.91 508.35 274.91 498.92 274.91 489.49 274.91 480.06 274.91 470.62 274.91 461.19 274.91 451.75 274.91 442.32 274.91 432.88 274.91 423.45 265.65 423.45"/><rect class="cls-2" x="265.65" y="546.09" width="9.26" height="9.44"/><rect class="cls-2" x="265.65" y="517.79" width="9.26" height="9.43"/><rect class="cls-2" x="265.65" y="489.49" width="9.26" height="9.43"/><rect class="cls-2" x="265.65" y="461.19" width="9.26" height="9.43"/><rect class="cls-2" x="265.65" y="432.89" width="9.26" height="9.44"/><rect class="cls-2" x="265.65" y="423.45" width="9.26" height="9.44"/><rect class="cls-2" x="256.11" y="546.09" width="9.55" height="9.44"/><rect class="cls-2" x="256.11" y="517.79" width="9.55" height="9.43"/><rect class="cls-2" x="256.11" y="489.49" width="9.55" height="9.43"/><rect class="cls-2" x="256.11" y="461.19" width="9.55" height="9.43"/><rect class="cls-2" x="256.11" y="432.89" width="9.55" height="9.44"/><rect class="cls-2" x="256.11" y="423.45" width="9.55" height="9.44"/><rect class="cls-2" x="246.56" y="546.09" width="9.55" height="9.44"/><rect class="cls-2" x="246.56" y="517.79" width="9.55" height="9.43"/><rect class="cls-2" x="246.56" y="489.49" width="9.55" height="9.43"/><rect class="cls-2" x="246.56" y="461.19" width="9.55" height="9.43"/><rect class="cls-2" x="246.56" y="432.89" width="9.55" height="9.44"/><rect class="cls-2" x="246.56" y="423.45" width="9.55" height="9.44"/><rect class="cls-2" x="237.3" y="546.09" width="9.26" height="9.44"/><rect class="cls-2" x="237.3" y="517.79" width="9.26" height="9.43"/><rect class="cls-2" x="237.3" y="489.49" width="9.26" height="9.43"/><rect class="cls-2" x="237.3" y="461.19" width="9.26" height="9.43"/><rect class="cls-2" x="237.3" y="432.89" width="9.26" height="9.44"/><rect class="cls-2" x="237.3" y="423.45" width="9.26" height="9.44"/><rect class="cls-2" x="237.3" y="414.02" width="9.26" height="9.43"/><rect class="cls-2" x="237.3" y="404.59" width="9.26" height="9.43"/><rect class="cls-2" x="227.76" y="546.09" width="9.55" height="9.44"/><rect class="cls-2" x="227.76" y="517.79" width="9.55" height="9.43"/><rect class="cls-2" x="227.76" y="489.49" width="9.55" height="9.43"/><rect class="cls-2" x="227.76" y="461.19" width="9.55" height="9.43"/><rect class="cls-2" x="227.76" y="432.89" width="9.55" height="9.44"/><rect class="cls-2" x="227.76" y="423.45" width="9.55" height="9.44"/><rect class="cls-2" x="227.76" y="404.59" width="9.55" height="9.43"/><rect class="cls-2" x="218.5" y="546.09" width="9.26" height="9.44"/><rect class="cls-2" x="218.5" y="517.79" width="9.26" height="9.43"/><rect class="cls-2" x="218.5" y="489.49" width="9.26" height="9.43"/><rect class="cls-2" x="218.5" y="461.19" width="9.26" height="9.43"/><rect class="cls-2" x="218.5" y="432.89" width="9.26" height="9.44"/><rect class="cls-2" x="218.5" y="423.45" width="9.26" height="9.44"/><rect class="cls-2" x="218.5" y="414.02" width="9.26" height="9.43"/><rect class="cls-2" x="218.5" y="404.59" width="9.26" height="9.43"/><rect class="cls-2" x="208.96" y="546.09" width="9.55" height="9.44"/><rect class="cls-2" x="208.96" y="517.79" width="9.55" height="9.43"/><rect class="cls-2" x="208.96" y="489.49" width="9.55" height="9.43"/><rect class="cls-2" x="208.96" y="461.19" width="9.55" height="9.43"/><rect class="cls-2" x="208.96" y="432.89" width="9.55" height="9.44"/><rect class="cls-2" x="208.96" y="423.45" width="9.55" height="9.44"/><rect class="cls-2" x="208.96" y="404.59" width="9.55" height="9.43"/><rect class="cls-2" x="199.41" y="546.09" width="9.55" height="9.44"/><rect class="cls-2" x="199.41" y="517.79" width="9.55" height="9.43"/><rect class="cls-2" x="199.41" y="489.49" width="9.55" height="9.43"/><rect class="cls-2" x="199.41" y="461.19" width="9.55" height="9.43"/><rect class="cls-3" x="256.11" y="536.66" width="9.55" height="9.43"/><rect class="cls-3" x="256.11" y="508.35" width="9.55" height="9.44"/><rect class="cls-3" x="256.11" y="480.06" width="9.55" height="9.43"/><rect class="cls-3" x="256.11" y="451.75" width="9.55" height="9.43"/><rect class="cls-3" x="237.3" y="536.66" width="9.26" height="9.43"/><rect class="cls-3" x="237.3" y="508.35" width="9.26" height="9.44"/><rect class="cls-3" x="237.3" y="480.06" width="9.26" height="9.43"/><rect class="cls-3" x="237.3" y="451.75" width="9.26" height="9.43"/><rect class="cls-3" x="227.76" y="414.02" width="9.55" height="9.43"/><rect class="cls-3" x="218.5" y="536.66" width="9.26" height="9.43"/><rect class="cls-3" x="218.5" y="508.35" width="9.26" height="9.44"/><rect class="cls-3" x="218.5" y="480.06" width="9.26" height="9.43"/><rect class="cls-3" x="218.5" y="451.75" width="9.26" height="9.43"/><rect class="cls-3" x="208.96" y="414.02" width="9.55" height="9.43"/><rect class="cls-3" x="199.41" y="536.66" width="9.55" height="9.43"/><rect class="cls-3" x="199.41" y="508.35" width="9.55" height="9.44"/><rect class="cls-3" x="199.41" y="480.06" width="9.55" height="9.43"/><rect class="cls-3" x="199.41" y="451.75" width="9.55" height="9.43"/><rect class="cls-2" x="199.41" y="432.89" width="9.55" height="9.44"/><rect class="cls-2" x="199.41" y="423.45" width="9.55" height="9.44"/><rect class="cls-2" x="199.41" y="414.02" width="9.55" height="9.43"/><rect class="cls-2" x="199.41" y="404.59" width="9.55" height="9.43"/><rect class="cls-2" x="190.15" y="546.09" width="9.26" height="9.44"/><rect class="cls-2" x="190.15" y="517.79" width="9.26" height="9.43"/><rect class="cls-2" x="190.15" y="489.49" width="9.26" height="9.43"/><rect class="cls-2" x="190.15" y="461.19" width="9.26" height="9.43"/><polygon class="cls-4" points="265.65 442.32 256.11 442.32 246.56 442.32 237.3 442.32 227.76 442.32 218.5 442.32 208.96 442.32 199.41 442.32 190.15 442.32 190.15 451.75 190.15 461.19 199.41 461.19 199.41 451.75 208.96 451.75 208.96 461.19 218.5 461.19 218.5 451.75 227.76 451.75 227.76 461.19 237.3 461.19 237.3 451.75 246.56 451.75 246.56 461.19 256.11 461.19 256.11 451.75 265.65 451.75 265.65 461.19 274.91 461.19 274.91 451.75 274.91 442.32 265.65 442.32"/><polygon class="cls-4" points="256.11 555.53 246.56 555.53 237.3 555.53 227.76 555.53 218.5 555.53 208.96 555.53 199.41 555.53 190.15 555.53 190.15 564.96 190.15 574.39 199.41 574.39 208.96 574.39 218.5 574.39 227.76 574.39 237.3 574.39 246.56 574.39 256.11 574.39 265.65 574.39 274.91 574.39 274.91 564.96 274.91 555.53 265.65 555.53 256.11 555.53"/><polygon class="cls-4" points="256.11 527.23 246.56 527.23 237.3 527.23 227.76 527.23 218.5 527.23 208.96 527.23 199.41 527.23 190.15 527.23 190.15 536.66 190.15 546.09 199.41 546.09 199.41 536.66 208.96 536.66 208.96 546.09 218.5 546.09 218.5 536.66 227.76 536.66 227.76 546.09 237.3 546.09 237.3 536.66 246.56 536.66 246.56 546.09 256.11 546.09 256.11 536.66 265.65 536.66 265.65 546.09 274.91 546.09 274.91 536.66 274.91 527.23 265.65 527.23 256.11 527.23"/><polygon class="cls-4" points="256.11 498.92 246.56 498.92 237.3 498.92 227.76 498.92 218.5 498.92 208.96 498.92 199.41 498.92 190.15 498.92 190.15 508.35 190.15 517.79 199.41 517.79 199.41 508.35 208.96 508.35 208.96 517.79 218.5 517.79 218.5 508.35 227.76 508.35 227.76 517.79 237.3 517.79 237.3 508.35 246.56 508.35 246.56 517.79 256.11 517.79 256.11 508.35 265.65 508.35 265.65 517.79 274.91 517.79 274.91 508.35 274.91 498.92 265.65 498.92 256.11 498.92"/><polygon class="cls-4" points="256.11 470.62 246.56 470.62 237.3 470.62 227.76 470.62 218.5 470.62 208.96 470.62 199.41 470.62 190.15 470.62 190.15 480.06 190.15 489.49 199.41 489.49 199.41 480.06 208.96 480.06 208.96 489.49 218.5 489.49 218.5 480.06 227.76 480.06 227.76 489.49 237.3 489.49 237.3 480.06 246.56 480.06 246.56 489.49 256.11 489.49 256.11 480.06 265.65 480.06 265.65 489.49 274.91 489.49 274.91 480.06 274.91 470.62 265.65 470.62 256.11 470.62"/><rect class="cls-2" x="190.15" y="432.89" width="9.26" height="9.44"/><rect class="cls-2" x="190.15" y="423.45" width="9.26" height="9.44"/><polygon class="cls-11" points="395.33 385.72 395.33 376.28 385.79 376.28 385.79 385.72 376.24 385.72 376.24 376.28 366.99 376.28 366.99 385.72 357.44 385.72 357.44 376.28 347.89 376.28 347.89 385.72 338.64 385.72 338.64 376.28 329.09 376.28 329.09 385.72 319.83 385.72 319.83 376.28 310.29 376.28 310.29 385.72 300.74 385.72 300.74 395.15 300.74 404.59 300.74 414.02 300.74 423.45 300.74 432.88 300.74 442.32 300.74 451.75 300.74 461.19 300.74 470.62 300.74 480.06 300.74 489.49 300.74 498.93 300.74 508.36 300.74 517.79 300.74 527.23 300.74 536.66 300.74 546.09 300.74 555.53 300.74 564.96 300.74 574.39 310.29 574.39 319.83 574.39 329.09 574.39 338.64 574.39 347.89 574.39 357.44 574.39 366.99 574.39 376.24 574.39 385.79 574.39 395.33 574.39 404.59 574.39 404.59 564.96 404.59 555.53 404.59 546.09 404.59 536.66 404.59 527.23 404.59 517.79 404.59 508.36 404.59 498.93 404.59 489.49 404.59 480.06 404.59 470.62 404.59 461.19 404.59 451.75 404.59 442.32 404.59 432.88 404.59 423.45 404.59 414.02 404.59 404.59 404.59 395.15 404.59 385.72 395.33 385.72"/><polygon class="cls-12" points="395.33 385.72 395.33 376.28 385.79 376.28 385.79 385.72 376.24 385.72 376.24 376.28 366.99 376.28 366.99 385.72 357.44 385.72 357.44 376.28 347.89 376.28 347.89 385.72 338.64 385.72 338.64 376.28 329.09 376.28 329.09 385.72 319.83 385.72 319.83 376.28 310.29 376.28 310.29 385.72 300.74 385.72 300.74 395.15 310.29 395.15 319.83 395.15 329.09 395.15 338.64 395.15 347.89 395.15 357.44 395.15 366.99 395.15 376.24 395.15 385.79 395.15 395.33 395.15 404.59 395.15 404.59 385.72 395.33 385.72"/><polygon class="cls-12" points="385.79 555.53 376.24 555.53 366.99 555.53 357.44 555.53 347.89 555.53 338.64 555.53 329.09 555.53 319.83 555.53 310.29 555.53 300.74 555.53 300.74 564.96 300.74 574.39 310.29 574.39 319.83 574.39 329.09 574.39 338.64 574.39 347.89 574.39 357.44 574.39 366.99 574.39 376.24 574.39 385.79 574.39 395.33 574.39 404.59 574.39 404.59 564.96 404.59 555.53 395.33 555.53 385.79 555.53"/><polygon class="cls-12" points="385.79 536.66 385.79 546.09 395.33 546.09 395.33 536.66 395.33 527.23 385.79 527.23 385.79 536.66"/><polygon class="cls-12" points="385.79 508.36 385.79 517.79 395.33 517.79 395.33 508.36 395.33 498.93 385.79 498.93 385.79 508.36"/><polygon class="cls-12" points="385.79 480.06 385.79 489.49 395.33 489.49 395.33 480.06 395.33 470.62 385.79 470.62 385.79 480.06"/><polygon class="cls-12" points="385.79 451.75 385.79 461.19 395.33 461.19 395.33 451.75 395.33 442.32 385.79 442.32 385.79 451.75"/><polygon class="cls-12" points="395.33 423.45 395.33 414.02 385.79 414.02 385.79 423.45 385.79 432.88 395.33 432.88 395.33 423.45"/><polygon class="cls-12" points="366.99 536.66 366.99 546.09 376.24 546.09 376.24 536.66 376.24 527.23 366.99 527.23 366.99 536.66"/><polygon class="cls-12" points="366.99 508.36 366.99 517.79 376.24 517.79 376.24 508.36 376.24 498.93 366.99 498.93 366.99 508.36"/><polygon class="cls-12" points="366.99 480.06 366.99 489.49 376.24 489.49 376.24 480.06 376.24 470.62 366.99 470.62 366.99 480.06"/><polygon class="cls-12" points="366.99 451.75 366.99 461.19 376.24 461.19 376.24 451.75 376.24 442.32 366.99 442.32 366.99 451.75"/><polygon class="cls-12" points="376.24 423.45 376.24 414.02 366.99 414.02 366.99 423.45 366.99 432.88 376.24 432.88 376.24 423.45"/><polygon class="cls-12" points="347.89 536.66 347.89 546.09 357.44 546.09 357.44 536.66 357.44 527.23 347.89 527.23 347.89 536.66"/><polygon class="cls-12" points="347.89 508.36 347.89 517.79 357.44 517.79 357.44 508.36 357.44 498.93 347.89 498.93 347.89 508.36"/><polygon class="cls-12" points="347.89 480.06 347.89 489.49 357.44 489.49 357.44 480.06 357.44 470.62 347.89 470.62 347.89 480.06"/><polygon class="cls-12" points="347.89 451.75 347.89 461.19 357.44 461.19 357.44 451.75 357.44 442.32 347.89 442.32 347.89 451.75"/><polygon class="cls-12" points="357.44 423.45 357.44 414.02 347.89 414.02 347.89 423.45 347.89 432.88 357.44 432.88 357.44 423.45"/><polygon class="cls-12" points="329.09 536.66 329.09 546.09 338.64 546.09 338.64 536.66 338.64 527.23 329.09 527.23 329.09 536.66"/><polygon class="cls-12" points="329.09 508.36 329.09 517.79 338.64 517.79 338.64 508.36 338.64 498.93 329.09 498.93 329.09 508.36"/><polygon class="cls-12" points="329.09 480.06 329.09 489.49 338.64 489.49 338.64 480.06 338.64 470.62 329.09 470.62 329.09 480.06"/><polygon class="cls-12" points="329.09 451.75 329.09 461.19 338.64 461.19 338.64 451.75 338.64 442.32 329.09 442.32 329.09 451.75"/><polygon class="cls-12" points="338.64 423.45 338.64 414.02 329.09 414.02 329.09 423.45 329.09 432.88 338.64 432.88 338.64 423.45"/><polygon class="cls-12" points="310.29 536.66 310.29 546.09 319.83 546.09 319.83 536.66 319.83 527.23 310.29 527.23 310.29 536.66"/><polygon class="cls-12" points="310.29 508.36 310.29 517.79 319.83 517.79 319.83 508.36 319.83 498.93 310.29 498.93 310.29 508.36"/><polygon class="cls-12" points="310.29 480.06 310.29 489.49 319.83 489.49 319.83 480.06 319.83 470.62 310.29 470.62 310.29 480.06"/><polygon class="cls-12" points="310.29 451.75 310.29 461.19 319.83 461.19 319.83 451.75 319.83 442.32 310.29 442.32 310.29 451.75"/><polygon class="cls-12" points="319.83 423.45 319.83 414.02 310.29 414.02 310.29 423.45 310.29 432.88 319.83 432.88 319.83 423.45"/><polygon class="cls-13" points="152.13 368.52 152.13 359.12 142.87 359.12 133.33 359.12 124.07 359.12 114.53 359.12 105.27 359.12 95.72 359.12 86.47 359.12 76.92 359.12 76.92 368.52 67.66 368.52 67.66 377.93 67.66 387.33 67.66 396.74 67.66 406.14 67.66 415.54 67.66 424.94 67.66 434.35 76.92 434.35 76.92 443.75 76.92 453.15 76.92 462.55 76.92 471.96 67.66 471.96 67.66 481.36 67.66 490.77 67.66 500.17 67.66 509.57 58.12 509.57 58.12 500.17 58.12 490.77 48.86 490.77 48.86 481.36 39.32 481.36 39.32 471.96 39.32 462.55 30.06 462.55 30.06 471.96 30.06 481.36 30.06 490.77 39.32 490.77 39.32 500.17 39.32 509.57 39.32 518.98 48.86 518.98 48.86 528.38 58.12 528.38 58.12 537.78 67.66 537.78 76.92 537.78 86.47 537.78 86.47 547.19 76.92 547.19 76.92 556.59 76.92 565.99 76.92 575.39 86.47 575.39 95.72 575.39 105.27 575.39 105.27 565.99 95.72 565.99 86.47 565.99 86.47 556.59 95.72 556.59 95.72 547.19 105.27 547.19 105.27 537.78 114.53 537.78 124.07 537.78 124.07 547.19 114.53 547.19 114.53 556.59 114.53 565.99 114.53 575.39 124.07 575.39 133.33 575.39 133.33 565.99 124.07 565.99 124.07 556.59 133.33 556.59 133.33 547.19 142.87 547.19 142.87 537.78 152.13 537.78 152.13 528.38 152.13 518.98 142.87 518.98 142.87 509.57 133.33 509.57 133.33 500.17 133.33 490.77 142.87 490.77 142.87 481.36 133.33 481.36 133.33 471.96 142.87 471.96 142.87 462.55 133.33 462.55 133.33 453.15 124.07 453.15 124.07 443.75 133.33 443.75 142.87 443.75 142.87 434.35 152.13 434.35 161.68 434.35 161.68 424.94 161.68 415.54 152.13 415.54 142.87 415.54 133.33 415.54 124.07 415.54 124.07 406.14 133.33 406.14 142.87 406.14 152.13 406.14 161.68 406.14 161.68 396.74 161.68 387.33 161.68 377.93 161.68 368.52 152.13 368.52"/><rect class="cls-14" x="86.47" y="377.93" width="9.26" height="9.4"/><polygon class="cls-15" points="152.13 424.94 142.87 424.94 133.33 424.94 133.33 434.35 124.07 434.35 124.07 443.75 133.33 443.75 142.87 443.75 142.87 434.35 152.13 434.35 161.68 434.35 161.68 424.94 152.13 424.94"/><rect class="cls-15" x="142.87" y="387.33" width="9.26" height="9.41"/><rect class="cls-15" x="133.33" y="462.55" width="9.55" height="9.41"/><polygon class="cls-15" points="124.07 537.78 124.07 547.19 114.53 547.19 114.53 556.59 114.53 565.99 114.53 575.39 124.07 575.39 133.33 575.39 133.33 565.99 124.07 565.99 124.07 556.59 133.33 556.59 133.33 547.19 142.87 547.19 142.87 537.78 133.33 537.78 124.07 537.78"/><polygon class="cls-15" points="124.07 481.36 124.07 471.96 114.53 471.96 114.53 481.36 114.53 490.77 124.07 490.77 133.33 490.77 142.87 490.77 142.87 481.36 133.33 481.36 124.07 481.36"/><rect class="cls-15" x="114.53" y="443.75" width="9.55" height="9.4"/><polygon class="cls-15" points="67.66 518.98 67.66 509.57 58.12 509.57 58.12 518.98 58.12 528.38 58.12 537.78 67.66 537.78 76.92 537.78 76.92 528.38 67.66 528.38 67.66 518.98"/><path class="cls-13" d="M156,448.71v-9.4H80.77v9.4H71.51v65.82h9.26v37.61H71.51v56.42h9.26V618h9.55v9.41H80.77v28.21h28.35v-9.4H90.31v-9.4h9.26v-9.4h9.55V618H156V599.17h-9.26v-9.4h-9.55V571h-18.8V552.15h9.55v9.4h9.26V533.34h-18.8v-9.4h9.55v-9.4h9.26v-9.41h28.35v-9.4h-37.6v-9.4h37.6V448.71Zm-65.66,9.4h9.26v9.4H90.31ZM156,476.92h-9.26v-9.41H156Z" transform="translate(-3.84 -80.19)"/><polygon class="cls-13" points="48.86 481.36 39.32 481.36 39.32 471.96 39.32 462.55 30.06 462.55 30.06 471.96 30.06 481.36 30.06 490.77 39.32 490.77 39.32 500.17 39.32 509.57 39.32 518.98 48.86 518.98 48.86 528.38 58.12 528.38 58.12 518.98 58.12 509.57 58.12 500.17 58.12 490.77 48.86 490.77 48.86 481.36"/><polygon class="cls-9" points="1178.7 308.65 1178.7 300.62 1170.6 300.62 1162.79 300.62 1162.79 292.58 1154.69 292.58 1154.69 284.54 1146.59 284.54 1146.59 276.5 1138.49 276.5 1130.68 276.5 1122.58 276.5 1122.58 284.54 1114.48 284.54 1114.48 292.58 1114.48 300.62 1106.38 300.62 1098.28 300.62 1098.28 308.65 1090.47 308.65 1090.47 316.69 1090.47 324.73 1098.28 324.73 1098.28 332.76 1106.38 332.76 1114.48 332.76 1114.48 340.8 1122.58 340.8 1130.68 340.8 1138.49 340.8 1146.59 340.8 1154.69 340.8 1162.79 340.8 1162.79 332.76 1170.6 332.76 1178.7 332.76 1178.7 324.73 1186.8 324.73 1186.8 316.69 1186.8 308.65 1178.7 308.65"/><polygon class="cls-9" points="1036.01 137.56 1036.01 129.52 1027.91 129.52 1020.1 129.52 1020.1 121.49 1012 121.49 1012 113.45 1003.9 113.45 1003.9 105.41 995.8 105.41 987.99 105.41 979.89 105.41 979.89 113.45 971.79 113.45 971.79 121.49 971.79 129.52 963.69 129.52 955.59 129.52 955.59 137.56 947.78 137.56 947.78 145.6 947.78 153.63 955.59 153.63 955.59 161.67 963.69 161.67 971.79 161.67 971.79 169.71 979.89 169.71 987.99 169.71 995.8 169.71 1003.9 169.71 1012 169.71 1020.1 169.71 1020.1 161.67 1027.91 161.67 1036.01 161.67 1036.01 153.63 1044.11 153.63 1044.11 145.6 1044.11 137.56 1036.01 137.56"/><polygon class="cls-9" points="1292.25 36 1292.25 27 1280.59 27 1269.34 27 1269.34 18 1257.68 18 1257.68 9 1246.02 9 1246.02 0 1234.35 0 1223.11 0 1211.44 0 1211.44 9 1199.78 9 1199.78 18 1199.78 27 1188.12 27 1176.45 27 1176.45 36 1165.21 36 1165.21 45 1165.21 54 1176.45 54 1176.45 63 1188.12 63 1199.78 63 1199.78 72 1211.44 72 1223.11 72 1234.35 72 1246.02 72 1257.68 72 1269.34 72 1269.34 63 1280.59 63 1292.25 63 1292.25 54 1303.91 54 1303.91 45 1303.91 36 1292.25 36"/><rect class="cls-16" x="1207.45" y="280.84" width="2.96" height="2.96" transform="translate(-26.8 356.03) rotate(-20.27)"/><rect class="cls-16" x="1205.69" y="284.65" width="2.96" height="2.96" transform="translate(-28.22 355.65) rotate(-20.27)"/><rect class="cls-16" x="1206.72" y="287.43" width="2.96" height="2.96" transform="translate(-29.12 356.18) rotate(-20.27)"/><rect class="cls-16" x="1204.96" y="291.24" width="2.96" height="2.96" transform="translate(-30.55 355.81) rotate(-20.27)"/><polygon class="cls-16" points="1242.84 180.29 1241.82 177.51 1233.47 180.59 1232.44 177.81 1226.88 179.86 1225.86 177.08 1223.08 178.11 1221.02 172.55 1218.24 173.57 1216.19 168.01 1213.41 169.04 1212.38 166.26 1209.6 167.28 1208.57 164.5 1197.45 168.61 1198.47 171.39 1195.69 172.42 1196.72 175.2 1193.94 176.23 1195.99 181.79 1193.21 182.81 1195.27 188.38 1192.48 189.4 1193.51 192.19 1187.95 194.24 1188.97 197.02 1180.63 200.1 1181.66 202.88 1178.88 203.91 1179.9 206.69 1182.68 205.66 1183.71 208.44 1244.9 185.85 1243.87 183.07 1246.65 182.04 1245.62 179.26 1242.84 180.29 1242.84 180.29"/><rect class="cls-16" x="1226.91" y="273.65" width="2.96" height="2.96" transform="translate(-23.1 362.32) rotate(-20.27)"/><rect class="cls-16" x="1230.72" y="275.41" width="2.96" height="2.96" transform="translate(-23.47 363.75) rotate(-20.27)"/><rect class="cls-16" x="1231.75" y="278.19" width="2.96" height="2.96" transform="translate(-24.37 364.28) rotate(-20.27)"/><rect class="cls-16" x="1235.56" y="279.94" width="2.96" height="2.96" transform="translate(-24.75 365.71) rotate(-20.27)"/></svg>