<?xml version="1.0" encoding="utf-8"?>
<!-- Generator: Adobe Illustrator 21.0.2, SVG Export Plug-In . SVG Version: 6.00 Build 0)  -->
<svg version="1.1" id="Слой_1" xmlns="http://www.w3.org/2000/svg" xmlns:xlink="http://www.w3.org/1999/xlink" x="0px" y="0px"
	 viewBox="0 0 47.9 45.2" style="enable-background:new 0 0 47.9 45.2;" xml:space="preserve">
<style type="text/css">
	.st0{fill:#79E0F7;}
	.st1{fill:#3E528C;}
</style>
<g>
	<polygon class="st0" points="47.9,5.4 47.9,29.3 45.2,29.3 45.2,31.9 42.6,31.9 42.6,34.6 37.3,34.6 37.3,45.2 34.6,45.2 
		34.6,42.6 32,42.6 32,39.9 29.3,39.9 29.3,37.2 26.6,37.2 26.6,34.6 5.4,34.6 5.4,31.9 2.8,31.9 2.8,29.3 0.1,29.3 0.1,5.4 
		2.8,5.4 2.8,2.7 5.4,2.7 5.4,0.1 42.6,0.1 42.6,2.7 45.2,2.7 45.2,5.4 	"/>
	<g>
		<polygon class="st1" points="13.4,10.7 13.4,18.7 18.7,18.7 18.7,24 21.3,24 21.3,10.7 13.4,10.7 		"/>
		<polygon class="st1" points="26.6,10.7 26.6,18.7 32,18.7 32,24 34.6,24 34.6,10.7 26.6,10.7 		"/>
	</g>
</g>
</svg>
