<?xml version="1.0" encoding="utf-8"?>
<!-- Generator: Adobe Illustrator 21.0.2, SVG Export Plug-In . SVG Version: 6.00 Build 0)  -->
<svg version="1.1" id="Слой_1" xmlns="http://www.w3.org/2000/svg" xmlns:xlink="http://www.w3.org/1999/xlink" x="0px" y="0px"
	 viewBox="0 0 462 391" style="enable-background:new 0 0 462 391;" xml:space="preserve">
<style type="text/css">
	.st0{fill:#0B8E35;}
	.st1{fill:#069639;}
	.st2{fill:#1D1D1B;}
	.st3{fill:#FC4949;}
	.st4{fill:#FFFFFF;}
	.st5{fill:#969696;}
	.st6{fill:#EEFFD9;}
</style>
<polygon class="st0" points="220.8,438.3 225.3,460.1 203.2,464.7 207.7,486.5 212.1,508.2 216.6,530 238.7,525.5 260.2,521 
	255.7,499.3 234.3,503.7 229.8,481.9 251.2,477.5 246.7,455.7 268.8,451.1 264.4,429.4 242.2,433.9 "/>
<path class="st1" d="M205,32.8l-4.5-21.8l-21.4,4.4L157,20l-21.4,4.4L113.4,29L92,33.4L69.9,38l-21.4,4.4l-22.1,4.6l4.5,21.8
	L9.4,73.1l4.5,21.8l4.5,21.8l4.5,21.8l4.5,21.8l4.5,21.8l4.5,21.8l4.5,21.8l21.4-4.4l4.5,21.8l4.5,21.8l4.5,21.8l4.5,21.8l-21.4,4.4
	l4.5,21.8l4.5,21.8l4.5,21.8l4.5,21.8l4.5,21.8l4.5,21.8l21.4-4.4l4.5,21.8l22.1-4.6l4.5,21.8l-22.1,4.6l4.5,21.8l4.5,21.8l4.5,21.8
	l22.1-4.6l21.4-4.4l22.1-4.6l-4.5-21.8l-22.1,4.6l-21.4,4.4l-4.5-21.8l21.4-4.4l-4.5-21.8l22.1-4.6l-4.5-21.8l21.4-4.4l22.1-4.6
	l21.4-4.4l22.1-4.6l21.4-4.4l-4.5-21.8l-4.5-21.8l-21.4,4.4l-4.5-21.8l-22.1,4.6l-4.5-21.8l-4.5-21.8l-21.4,4.4l-22.1,4.6l-4.5-21.8
	l-4.5-21.8l22.1-4.6l4.5,21.8l21.4-4.4l-4.5-21.8l-4.5-21.8l-4.5-21.8l-21.4,4.4l-22.1,4.6l-4.5-21.8l22.1-4.6l-4.5-21.8l21.4-4.4
	l-4.5-21.8l22.1-4.6l21.4-4.4l22.1-4.6l-4.5-21.8l-22.1,4.6l-21.4,4.4l-22.1,4.6l-21.4,4.4l-4.5-21.8l21.4-4.4l22.1-4.6L223,120
	l22.1-4.6l-4.5-21.8l-4.5-21.8l-4.5-21.8l-4.5-21.8L205,32.8z M57.4,85.9l21.4-4.4l4.5,21.8l-21.4,4.4L57.4,85.9z M218.5,98.2
	l-21.4,4.4l-4.5-21.8l21.4-4.4L218.5,98.2z"/>
<g>
	<polygon class="st1" points="205.2,31.3 200.7,9.5 179.3,13.9 157.2,18.5 135.7,22.9 113.6,27.4 92.2,31.9 70.1,36.4 48.6,40.8 
		26.5,45.4 31,67.2 9.6,71.6 14,93.4 18.5,115.1 23,136.9 27.5,158.7 32,180.5 36.5,202.3 41,224.1 62.4,219.7 66.9,241.4 
		71.4,263.2 75.9,285 80.4,306.8 58.9,311.2 63.4,333 67.9,354.8 72.4,376.6 76.9,398.3 54.7,402.9 42.3,450.9 63.7,446.5 
		68.2,468.2 90.3,463.7 111.8,459.3 133.9,454.7 177.4,445.7 198.9,441.3 221,436.8 264.6,427.8 286,423.4 281.5,401.6 277,379.8 
		255.6,384.2 251.1,362.5 229,367 224.5,345.2 220,323.4 242.1,318.9 237.6,297.1 215.5,301.7 211,279.9 233.1,275.3 228.7,253.5 
		206.5,258.1 202.1,236.3 180.6,240.7 176.1,218.9 197.6,214.5 219.7,210 215.2,188.2 236.6,183.8 258.8,179.2 254.3,157.4 
		249.8,135.6 227.7,140.2 206.2,144.6 184.1,149.2 162.7,153.6 158.2,131.8 179.6,127.4 201.7,122.8 223.2,118.4 245.3,113.9 
		240.8,92.1 236.3,70.3 231.8,48.5 227.3,26.7 	"/>
	<g>
		
			<rect x="59.4" y="83.5" transform="matrix(0.9794 -0.2018 0.2018 0.9794 -17.6454 16.1423)" class="st2" width="21.9" height="22.2"/>
		<polygon class="st0" points="232,163.5 210.5,168 188.4,172.5 192.9,194.3 171.4,198.7 175.9,220.5 197.4,216.1 219.5,211.5 
			215,189.7 236.4,185.3 258.6,180.8 254.1,159 		"/>
		
			<rect x="194.6" y="78.4" transform="matrix(0.9794 -0.2018 0.2018 0.9794 -13.8307 43.3065)" class="st0" width="21.9" height="22.2"/>
		
			<rect x="208.4" y="257.1" transform="matrix(0.9794 -0.2018 0.2018 0.9794 -49.6054 49.831)" class="st0" width="22.6" height="22.2"/>
		
			<rect x="155.8" y="222.5" transform="matrix(0.9794 -0.2018 0.2018 0.9794 -43.7061 38.5209)" class="st0" width="22.6" height="22.2"/>
		<g>
			<g>
				<polygon class="st3" points="250.9,257.8 251.6,252.3 246,251.6 246.6,246.1 247.3,240.6 247.9,235 242.3,234.4 243,228.9 
					243.6,223.3 244.3,217.8 238.9,217.2 239.5,211.7 240.1,206.1 234.5,205.5 233.9,211 233.3,216.5 227.7,215.9 227,221.4 
					226.4,226.9 225.7,232.4 220.3,231.8 219.7,237.3 219,242.9 218.4,248.4 212.8,247.7 212.2,253.3 206.7,252.6 206.1,258.2 
					205.4,263.7 204.8,269.2 204.2,274.7 203.5,280.3 202.9,285.8 202.2,291.3 201.6,296.8 200.9,302.4 200.3,307.9 199.7,313.4 
					199,318.9 198.4,324.5 197.7,330 197.1,335.5 196.4,341 195.8,346.6 195.1,352.1 194.5,357.6 193.9,363.1 199.3,363.8 
					204.9,364.4 210.3,365 215.9,365.7 221.5,366.4 226.9,367 232.5,367.6 238.1,368.3 243.5,368.9 244.1,363.4 244.8,357.9 
					245.4,352.3 246.1,346.8 246.7,341.3 247.4,335.8 248,330.2 248.6,324.7 249.3,319.2 249.9,313.7 250.6,308.1 251.2,302.6 
					251.9,297.1 252.5,291.6 253.2,286 253.8,280.5 254.4,275 255.1,269.5 255.7,263.9 256.4,258.4 				"/>
			</g>
			<g>
				
					<rect x="234.1" y="351.3" transform="matrix(0.1157 -0.9933 0.9933 0.1157 -142.2959 548.4556)" class="st4" width="5.6" height="5.6"/>
				
					<rect x="235.4" y="340.3" transform="matrix(0.1157 -0.9933 0.9933 0.1157 -130.1817 539.9634)" class="st4" width="5.6" height="5.6"/>
				
					<rect x="236.7" y="329.2" transform="matrix(0.1157 -0.9933 0.9933 0.1157 -118.0674 531.4711)" class="st4" width="5.6" height="5.6"/>
				
					<rect x="238" y="318.2" transform="matrix(0.1157 -0.9933 0.9933 0.1157 -105.9533 522.979)" class="st4" width="5.6" height="5.6"/>
				
					<rect x="239.3" y="307.1" transform="matrix(0.1157 -0.9933 0.9933 0.1157 -93.8395 514.487)" class="st4" width="5.6" height="5.6"/>
				
					<rect x="240.5" y="296.1" transform="matrix(0.1157 -0.9933 0.9933 0.1157 -81.7248 505.9944)" class="st4" width="5.6" height="5.6"/>
				
					<rect x="241.8" y="285" transform="matrix(0.1157 -0.9933 0.9933 0.1157 -69.6109 497.5024)" class="st4" width="5.6" height="5.6"/>
				
					<rect x="243.1" y="274" transform="matrix(0.1157 -0.9933 0.9933 0.1157 -57.4968 489.0103)" class="st4" width="5.6" height="5.6"/>
				
					<rect x="244.4" y="262.9" transform="matrix(0.1157 -0.9933 0.9933 0.1157 -45.3822 480.5178)" class="st4" width="5.6" height="5.6"/>
				
					<rect x="223" y="350.1" transform="matrix(0.1157 -0.9933 0.9933 0.1157 -150.8238 536.2905)" class="st4" width="5.6" height="5.5"/>
				
					<rect x="224.3" y="339.1" transform="matrix(0.1157 -0.9933 0.9933 0.1157 -138.7096 527.7983)" class="st4" width="5.6" height="5.5"/>
				
					<rect x="225.6" y="328" transform="matrix(0.1157 -0.9933 0.9933 0.1157 -126.5953 519.306)" class="st4" width="5.6" height="5.5"/>
				
					<rect x="226.9" y="317" transform="matrix(0.1157 -0.9933 0.9933 0.1157 -114.4812 510.8139)" class="st4" width="5.6" height="5.5"/>
				
					<rect x="228.2" y="305.9" transform="matrix(0.1157 -0.9933 0.9933 0.1157 -102.3674 502.3219)" class="st4" width="5.6" height="5.5"/>
				
					<rect x="229.4" y="294.9" transform="matrix(0.1157 -0.9933 0.9933 0.1157 -90.2527 493.8293)" class="st4" width="5.6" height="5.5"/>
				
					<rect x="230.7" y="283.8" transform="matrix(0.1157 -0.9933 0.9933 0.1157 -78.1388 485.3373)" class="st4" width="5.6" height="5.5"/>
				
					<rect x="232" y="272.8" transform="matrix(0.1157 -0.9933 0.9933 0.1157 -66.0247 476.8452)" class="st4" width="5.6" height="5.5"/>
				
					<rect x="233.3" y="261.7" transform="matrix(0.1157 -0.9933 0.9933 0.1157 -53.9101 468.3527)" class="st4" width="5.6" height="5.5"/>
				
					<rect x="235.9" y="239.6" transform="matrix(0.1157 -0.9933 0.9933 0.1157 -29.6813 451.3679)" class="st4" width="5.6" height="5.5"/>
				
					<rect x="232.3" y="222.3" transform="matrix(0.1157 -0.9933 0.9933 0.1157 -15.7426 432.5943)" class="st4" width="5.6" height="5.6"/>
				
					<rect x="211.9" y="348.7" transform="matrix(0.1157 -0.9933 0.9933 0.1157 -159.3517 524.1255)" class="st4" width="5.6" height="5.6"/>
				
					<rect x="213.2" y="337.7" transform="matrix(0.1157 -0.9933 0.9933 0.1157 -147.2375 515.6332)" class="st4" width="5.6" height="5.6"/>
				
					<rect x="214.5" y="326.6" transform="matrix(0.1157 -0.9933 0.9933 0.1157 -135.1232 507.1409)" class="st4" width="5.6" height="5.6"/>
				
					<rect x="215.8" y="315.6" transform="matrix(0.1157 -0.9933 0.9933 0.1157 -123.0091 498.6488)" class="st4" width="5.6" height="5.6"/>
				
					<rect x="217.1" y="304.5" transform="matrix(0.1157 -0.9933 0.9933 0.1157 -110.8953 490.1568)" class="st4" width="5.6" height="5.6"/>
				
					<rect x="218.4" y="293.5" transform="matrix(0.1157 -0.9933 0.9933 0.1157 -98.7806 481.6643)" class="st4" width="5.6" height="5.6"/>
				
					<rect x="219.6" y="282.4" transform="matrix(0.1157 -0.9933 0.9933 0.1157 -86.6667 473.1722)" class="st4" width="5.6" height="5.6"/>
				
					<rect x="220.9" y="271.4" transform="matrix(0.1157 -0.9933 0.9933 0.1157 -74.5526 464.6801)" class="st4" width="5.6" height="5.6"/>
				
					<rect x="222.2" y="260.3" transform="matrix(0.1157 -0.9933 0.9933 0.1157 -62.438 456.1876)" class="st4" width="5.6" height="5.6"/>
				
					<rect x="224.8" y="238.2" transform="matrix(0.1157 -0.9933 0.9933 0.1157 -38.2092 439.2029)" class="st4" width="5.6" height="5.6"/>
				
					<rect x="200.9" y="347.5" transform="matrix(0.1157 -0.9933 0.9933 0.1157 -167.8145 512.0533)" class="st4" width="5.6" height="5.6"/>
				
					<rect x="202.2" y="336.4" transform="matrix(0.1157 -0.9933 0.9933 0.1157 -155.7003 503.561)" class="st4" width="5.6" height="5.6"/>
				
					<rect x="203.5" y="325.4" transform="matrix(0.1157 -0.9933 0.9933 0.1157 -143.586 495.0687)" class="st4" width="5.6" height="5.6"/>
				
					<rect x="204.8" y="314.3" transform="matrix(0.1157 -0.9933 0.9933 0.1157 -131.4719 486.5766)" class="st4" width="5.6" height="5.6"/>
				
					<rect x="206.1" y="303.3" transform="matrix(0.1157 -0.9933 0.9933 0.1157 -119.3581 478.0846)" class="st4" width="5.6" height="5.6"/>
				
					<rect x="207.3" y="292.2" transform="matrix(0.1157 -0.9933 0.9933 0.1157 -107.2434 469.5921)" class="st4" width="5.6" height="5.6"/>
				
					<rect x="208.6" y="281.2" transform="matrix(0.1157 -0.9933 0.9933 0.1157 -95.1295 461.1)" class="st4" width="5.6" height="5.6"/>
				
					<rect x="209.9" y="270.1" transform="matrix(0.1157 -0.9933 0.9933 0.1157 -83.0154 452.6079)" class="st4" width="5.6" height="5.6"/>
				
					<rect x="211.2" y="259.1" transform="matrix(0.1157 -0.9933 0.9933 0.1157 -70.9008 444.1154)" class="st4" width="5.6" height="5.6"/>
			</g>
			<g>
				<polygon class="st5" points="238.7,362.8 233.1,362.1 227.5,361.5 222.1,360.8 216.5,360.2 210.9,359.5 205.5,358.9 
					199.9,358.2 194.5,357.6 193.9,363.1 199.3,363.8 204.9,364.4 210.3,365 215.9,365.7 221.5,366.4 226.9,367 232.5,367.6 
					238.1,368.3 243.5,368.9 244.1,363.4 				"/>
				<polygon class="st5" points="236.9,233.8 242.3,234.4 243,228.9 237.6,228.2 232,227.6 226.4,226.9 225.7,232.4 231.3,233.1 
									"/>
				<polygon class="st5" points="239.5,211.7 240.1,206.1 234.5,205.5 233.9,211 233.3,216.5 238.9,217.2 				"/>
				<polygon class="st5" points="223.2,254.5 228.8,255.2 234.3,255.9 239.8,256.5 245.4,257.1 250.9,257.8 251.6,252.3 246,251.6 
					240.4,251 235,250.3 229.4,249.7 223.8,249 218.4,248.4 212.8,247.7 212.2,253.3 217.7,253.9 				"/>
			</g>
		</g>
		<polygon class="st0" points="193.9,307.6 189.4,285.8 167.3,290.4 171.8,312.2 176.2,334 198.4,329.4 219.8,325 241.9,320.4 
			237.4,298.7 215.3,303.2 		"/>
	</g>
</g>
<polygon class="st6" points="281.7,52.1 281.7,86.1 289.9,86.1 289.9,99.8 298,99.8 298,113.4 289.9,113.4 289.9,133.8 306.2,133.8 
	306.2,127 314.3,127 314.3,120.2 322.4,120.2 322.4,113.4 338.7,113.4 338.7,120.2 387.6,120.2 387.6,113.4 412,113.4 412,106.6 
	428.3,106.6 428.3,99.8 436.4,99.8 436.4,86.1 444.6,86.1 444.6,52.1 436.4,52.1 436.4,38.4 428.3,38.4 428.3,31.6 412,31.6 
	412,24.8 387.6,24.8 387.6,18 338.7,18 338.7,24.8 314.3,24.8 314.3,31.6 298,31.6 298,38.4 289.9,38.4 289.9,52.1 "/>
<g>
	<path d="M312.5,52.5h2v3.9h-2V52.5z M314.5,56.5h2v3.9h-2V56.5z M316.5,60.4h2v7.9h-2V60.4z M318.5,56.5h2v3.9h-2V56.5z
		 M320.4,52.5h2v3.9h-2V52.5z"/>
	<path d="M324.4,58.5h2v7.9h-2V58.5z M326.4,58.4v-2h5.9v2h-2H326.4z M326.4,66.4h5.9v2h-5.9V66.4z M332.3,58.5h2v7.9h-2V58.5z"/>
	<path d="M336.3,56.5h2v9.9h-2V56.5z M338.2,66.4h5.9v2h-5.9V66.4z M344.2,56.5h2v9.9h-2V56.5z"/>
	<path d="M348.1,56.5h2v4h2v2h-2l0,5.9h-2V56.5z M352.1,58.5h2v2h-2V58.5z M354.1,56.5h2v2h-2V56.5z"/>
	<path d="M365.9,56.5h2v2h-2V56.5z M367.9,58.5h2v9.9h-2V58.5z M369.9,58.4v-2h5.9v2h-2H369.9z M375.8,58.5h2v9.9h-2V58.5z"/>
	<path d="M379.8,58.5h2v7.9h-2V58.5z M381.8,58.4v-2h3.9v2h-2H381.8z M381.8,66.4h3.9v2h-3.9V66.4z M385.7,58.5h2v7.9h-2V58.5z
		 M387.7,66.4h2v2h-2V66.4z"/>
	<path d="M391.7,60.4h2v7.9h-2V60.4z M393.7,58.5h2v2h-2V58.5z M395.6,56.5h2v2h-2V56.5z M397.6,58.5h2v2h-2V58.5z M399.6,60.4h2
		v7.9h-2V60.4z M401.6,58.5h2v2h-2V58.5z M403.6,56.5h2v2h-2V56.5z M405.5,58.5h2v2h-2V58.5z M407.5,60.4h2v7.9h-2V60.4z"/>
	<path d="M411.5,58.5h2v4l6,0v-3.9h2v5.9h-7.9l0,2h-2V58.5z M413.4,58.4v-2h5.9v2h-2H413.4z M413.4,66.4h5.9v2h-5.9V66.4z"/>
	<path d="M332.7,74.9h2.5v7.6l5.1,0v-7.5h2.5v7.6h2.5V90h-2.5v-5h-7.6l0,5.1h7.6v2.5h-10.1V74.9z M335.2,74.9v-2.5h5v2.5h-2.5H335.2
		z"/>
	<path d="M347.8,72.4h2.5v20.1h-2.5V72.4z"/>
	<path d="M357.9,74.9h-5v-2.5h12.6v2.5h-5l0,17.6h-2.5V74.9z"/>
	<path d="M367.9,74.9h2.5V90h-2.5V74.9z M370.4,74.9v-2.5h7.5v2.5h-2.5H370.4z M370.4,90h7.5v2.5h-7.5V90z M378,74.9h2.5v5H378V74.9
		z M378,85h2.5v5H378V85z"/>
	<path d="M383,72.4h2.5v7.6l7.6,0v-7.5h2.5v20.1h-2.5V82.4h-7.6l0,10.1H383V72.4z"/>
	<path d="M398.2,72.4h2.5v15.1h-2.5V72.4z M398.2,90h2.5v2.5h-2.5V90z"/>
</g>
</svg>
