<?xml version="1.0" encoding="utf-8"?>
<!-- Generator: Adobe Illustrator 21.0.2, SVG Export Plug-In . SVG Version: 6.00 Build 0)  -->
<svg version="1.1" id="Слой_1" xmlns="http://www.w3.org/2000/svg" xmlns:xlink="http://www.w3.org/1999/xlink" x="0px" y="0px"
	 viewBox="0 0 41.1 41.1" style="enable-background:new 0 0 41.1 41.1;" xml:space="preserve">
<style type="text/css">
	.st0{fill:#FADB46;}
	.st1{fill:#414042;}
</style>
<g>
	<polygon class="st0" points="41.1,14.5 41.1,26.6 38.7,26.6 38.7,31.5 36.3,31.5 36.3,33.9 33.9,33.9 33.9,36.3 31.5,36.3 
		31.5,38.7 26.6,38.7 26.6,41.1 14.5,41.1 14.5,38.7 9.7,38.7 9.7,36.3 7.3,36.3 7.3,33.9 4.8,33.9 4.8,31.5 2.4,31.5 2.4,26.6 
		0,26.6 0,14.5 2.4,14.5 2.4,9.7 4.8,9.7 4.8,7.3 7.3,7.3 7.3,4.8 9.7,4.8 9.7,2.4 14.5,2.4 14.5,0 26.6,0 26.6,2.4 31.5,2.4 
		31.5,4.8 33.9,4.8 33.9,7.3 36.3,7.3 36.3,9.7 38.7,9.7 38.7,14.5 	"/>
	<rect x="14.5" y="12.1" class="st1" width="2.4" height="4.8"/>
	<rect x="24.2" y="12.1" class="st1" width="2.4" height="4.8"/>
	<rect x="12.1" y="26.6" class="st1" width="16.9" height="2.4"/>
</g>
</svg>
