<?xml version="1.0" encoding="utf-8"?>
<!-- Generator: Adobe Illustrator 21.0.2, SVG Export Plug-In . SVG Version: 6.00 Build 0)  -->
<svg version="1.1" id="Слой_1" xmlns="http://www.w3.org/2000/svg" xmlns:xlink="http://www.w3.org/1999/xlink" x="0px" y="0px"
	 viewBox="0 0 33.3 37.2" style="enable-background:new 0 0 33.3 37.2;" xml:space="preserve">
<style type="text/css">
	.st0{fill:#B3FF38;}
	.st1{fill:#414042;}
</style>
<g>
	<polygon class="st0" points="33.3,11.8 33.3,19.6 31.3,19.6 31.3,23.5 29.4,23.5 29.4,27.4 27.4,27.4 27.4,29.4 25.5,29.4 
		25.5,31.3 23.5,31.3 23.5,33.3 21.6,33.3 21.6,35.3 19.6,35.3 19.6,37.2 13.7,37.2 13.7,35.3 11.8,35.3 11.8,33.3 9.8,33.3 
		9.8,31.3 7.8,31.3 7.8,29.4 5.9,29.4 5.9,27.4 3.9,27.4 3.9,23.5 2,23.5 2,19.6 0,19.6 0,11.8 2,11.8 2,7.8 3.9,7.8 3.9,5.9 
		5.9,5.9 5.9,3.9 7.8,3.9 7.8,2 11.8,2 11.8,0 21.6,0 21.6,2 25.5,2 25.5,3.9 27.4,3.9 27.4,5.9 29.4,5.9 29.4,7.8 31.3,7.8 
		31.3,11.8 	"/>
	<polygon class="st1" points="11.8,21.6 11.8,19.6 9.8,19.6 9.8,17.6 7.8,17.6 5.9,17.6 3.9,17.6 3.9,19.6 5.9,19.6 5.9,21.6 
		7.8,21.6 7.8,23.5 9.8,23.5 11.8,23.5 13.7,23.5 13.7,21.6 	"/>
	<polygon class="st1" points="21.6,21.6 21.6,19.6 23.5,19.6 23.5,17.6 25.5,17.6 27.4,17.6 29.4,17.6 29.4,19.6 27.4,19.6 
		27.4,21.6 25.5,21.6 25.5,23.5 23.5,23.5 21.6,23.5 19.6,23.5 19.6,21.6 	"/>
</g>
</svg>
